<?xml version="1.0" standalone="no"?>
<!DOCTYPE svg PUBLIC "-//W3C//DTD SVG 20010904//EN"
 "http://www.w3.org/TR/2001/REC-SVG-20010904/DTD/svg10.dtd">
<svg version="1.0" xmlns="http://www.w3.org/2000/svg"
 width="591.000000pt" height="591.000000pt" viewBox="0 0 591.000000 591.000000"
 preserveAspectRatio="xMidYMid meet">
<metadata>
Created by potrace 1.14, written by Peter Selinger 2001-2017
</metadata>
<g transform="translate(0.000000,591.000000) scale(0.100000,-0.100000)"
fill="#000000" stroke="none">
<path d="M1409 3656 c-1 -1 -3 -146 -4 -323 -1 -263 1 -323 12 -324 7 -1 25
-1 41 -2 l27 -1 3 137 3 137 32 0 c93 1 199 34 236 74 21 22 47 89 46 116 -3
50 -19 90 -48 117 -40 39 -61 49 -117 58 -36 7 -225 15 -231 11z m244 -90 c46
-22 69 -74 55 -125 -16 -56 -50 -79 -125 -86 -36 -3 -53 -10 -70 -30 l-23 -26
0 147 0 147 63 -5 c35 -3 80 -13 100 -22z"/>
<path d="M1859 3641 c0 -9 -1 -154 -2 -324 -2 -301 -2 -307 18 -308 11 0 30
-2 43 -3 14 -2 22 3 23 13 6 138 2 625 -6 631 -19 15 -75 9 -76 -9z"/>
<path d="M2020 3652 c-5 -2 -10 -16 -10 -32 0 -27 2 -28 43 -28 23 0 70 -1
104 -1 l62 -1 0 -287 c1 -157 3 -289 7 -292 10 -10 73 -7 77 4 1 5 2 137 2
293 l-1 282 25 1 c14 0 61 0 104 0 l77 -2 0 33 0 33 -240 0 c-131 0 -244 -1
-250 -3z"/>
<path d="M2575 3652 c-12 -8 -11 -6 -19 -97 -8 -87 -16 -152 -21 -185 -2 -14
-7 -56 -10 -95 -3 -38 -8 -81 -10 -95 -2 -14 -7 -54 -11 -90 -3 -36 -8 -68
-11 -72 -2 -5 6 -8 19 -9 13 0 33 -2 45 -3 27 -3 29 4 38 109 7 95 12 143 20
210 3 28 8 79 10 114 3 35 6 66 8 68 2 1 50 -100 107 -225 142 -314 123 -286
153 -221 14 29 47 101 75 159 27 58 68 145 91 194 23 49 43 87 45 85 2 -2 7
-40 11 -84 4 -44 8 -91 10 -105 11 -109 17 -159 22 -185 2 -16 5 -46 5 -65 0
-43 11 -57 40 -54 13 1 29 3 36 3 11 1 12 14 8 54 -3 28 -8 77 -11 107 -3 30
-8 71 -10 90 -2 19 -7 62 -10 95 -3 33 -8 74 -10 90 -4 36 -18 161 -20 190 -1
17 -9 20 -44 20 -50 0 -43 12 -166 -260 -48 -104 -89 -192 -91 -194 -2 -2 -11
12 -19 32 -16 40 -154 331 -182 387 -15 29 -24 35 -53 37 -20 1 -40 -1 -45 -5z"/>
<path d="M3527 3627 c-62 -149 -242 -604 -242 -612 0 -8 74 -11 80 -3 1 2 18
41 37 88 l35 85 131 1 c73 0 136 -2 140 -5 5 -3 24 -44 42 -91 l33 -85 36 2
c20 1 39 2 42 2 7 1 -221 601 -239 631 -5 8 -26 16 -46 17 -32 2 -38 -1 -49
-30z m102 -232 c28 -71 51 -132 51 -135 0 -3 -47 -5 -105 -5 -58 0 -105 3
-105 8 0 5 18 54 40 110 21 56 44 115 50 131 6 16 12 27 14 25 2 -2 27 -62 55
-134z"/>
<path d="M3935 3654 c-8 -3 -12 -444 -6 -624 1 -22 6 -25 34 -25 17 0 34 3 37
7 3 3 5 121 4 263 l0 256 30 -34 c50 -55 179 -198 206 -227 14 -15 72 -79 130
-143 57 -65 107 -117 110 -117 6 0 7 639 0 641 -3 1 -20 3 -37 5 l-33 2 0
-221 -1 -222 -50 55 c-28 30 -67 73 -87 95 -252 276 -267 290 -297 291 -16 1
-34 -1 -40 -2z"/>
<path d="M5871 3079 c-63 -131 -194 -241 -305 -256 -20 -2 -1218 -5 -2663 -6
l-2628 -2 -47 -22 c-128 -59 -209 -199 -222 -386 -3 -34 -1 -55 5 -52 5 4 9
13 9 22 0 8 15 48 34 88 53 114 131 189 222 214 28 8 807 11 2664 11 2789 0
2668 -2 2766 45 40 19 119 96 140 138 29 55 55 147 59 212 3 36 4 65 3 65 -2
0 -18 -32 -37 -71z"/>
<path d="M920 2483 c0 -8 13 -13 35 -13 l35 0 0 -100 c0 -60 4 -100 10 -100 6
0 13 0 16 0 4 0 7 45 6 99 l0 100 34 3 c19 2 34 8 34 13 0 16 -170 13 -170 -2z"/>
<path d="M1505 2487 c-7 -21 0 -217 8 -217 4 0 11 0 15 0 5 0 8 20 7 45 -2 40
1 45 19 45 14 0 28 -12 40 -32 28 -49 46 -67 61 -62 10 4 6 17 -16 49 -29 43
-36 65 -21 65 15 0 30 44 22 65 -12 32 -32 44 -84 49 -32 4 -48 1 -51 -7z m86
-27 c37 -21 20 -61 -31 -73 -24 -6 -25 -4 -26 38 -1 38 1 45 18 45 11 0 28 -5
39 -10z"/>
<path d="M2125 2433 c-61 -153 -64 -162 -55 -168 6 -3 19 10 31 29 19 33 25
36 66 36 40 0 45 -3 54 -29 11 -31 39 -50 39 -26 0 28 -84 225 -96 225 -6 0
-24 -30 -39 -67z m69 -58 c5 -17 1 -20 -29 -21 -40 -1 -41 0 -19 52 l16 38 13
-24 c7 -14 15 -34 19 -45z"/>
<path d="M2683 2492 c-17 -11 -14 -220 4 -226 7 -3 13 -2 14 2 4 37 3 216 -1
222 -3 5 -11 6 -17 2z"/>
<path d="M3119 2447 c-1 -50 -1 -154 0 -169 1 -5 8 -8 16 -8 11 0 14 16 14 73
0 39 0 79 0 87 1 14 104 -89 138 -137 8 -13 18 -23 22 -23 4 0 7 50 7 112 -1
80 -5 113 -13 116 -10 3 -13 -17 -13 -77 l0 -81 -44 47 c-25 27 -56 61 -70 77
-40 48 -56 43 -57 -17z"/>
<path d="M3730 2386 c0 -92 3 -115 15 -120 17 -6 17 -11 19 119 1 92 -4 114
-26 115 -5 0 -8 -51 -8 -114z"/>
<path d="M4185 2490 c-4 -6 -7 -52 -7 -103 0 -126 0 -127 16 -121 10 4 13 26
11 90 0 46 1 84 4 84 3 0 15 -11 26 -24 46 -54 133 -146 136 -146 8 0 4 219
-4 227 -15 15 -24 -18 -21 -82 1 -36 0 -65 -2 -65 -5 0 -82 82 -125 131 -19
22 -25 23 -34 9z"/>
<path d="M4844 2484 c-40 -20 -59 -55 -58 -110 0 -46 19 -76 65 -99 28 -15
114 -12 134 5 17 14 18 100 2 101 -7 0 -22 2 -35 3 -12 2 -30 -3 -40 -10 -15
-12 -14 -14 13 -15 17 -1 33 -1 37 0 12 2 5 -53 -7 -61 -18 -13 -80 -9 -102 7
-46 33 -46 120 2 151 26 17 68 21 103 10 16 -6 22 -3 22 8 0 9 -3 16 -7 17 -5
0 -28 2 -53 5 -29 2 -56 -2 -76 -12z"/>
</g>
</svg>
