<?xml version="1.0" encoding="utf-8"?>
<!-- Generator: Adobe Illustrator 16.0.2, SVG Export Plug-In . SVG Version: 6.00 Build 0)  -->
<!DOCTYPE svg PUBLIC "-//W3C//DTD SVG 1.1//EN" "http://www.w3.org/Graphics/SVG/1.1/DTD/svg11.dtd">
<svg version="1.1" id="Capa_1" xmlns="http://www.w3.org/2000/svg" xmlns:xlink="http://www.w3.org/1999/xlink" x="0px" y="0px"
	 width="49px" height="44.385px" viewBox="231.501 233.808 49 44.385" enable-background="new 231.501 233.808 49 44.385"
	 xml:space="preserve">
<g>
	<path fill="#7A7A7A" d="M276.153,243.99c1.459-1.009,2.417-2.692,2.417-4.596c0-0.888-0.202-1.737-0.602-2.523l-1.277,0.647
		c0.296,0.584,0.446,1.215,0.446,1.876c0,2.291-1.863,4.154-4.153,4.154s-4.154-1.863-4.154-4.154s1.864-4.154,4.154-4.154
		c1.126,0,2.18,0.443,2.968,1.248l1.022-1.002c-1.06-1.082-2.477-1.677-3.99-1.677c-3.08,0-5.586,2.506-5.586,5.586
		c0,1.907,0.961,3.593,2.424,4.602c-2.519,0.876-4.333,3.273-4.333,6.087v10.21c0,1.414,1.123,2.57,2.524,2.624v15.275h10.024
		v-15.278c1.372-0.084,2.463-1.228,2.463-2.621v-10.21C280.5,247.263,278.68,244.862,276.153,243.99L276.153,243.99z
		 M279.069,260.293c0,0.658-0.535,1.193-1.193,1.193h-1.271v15.273h-2.894v-12.703h-1.433v12.703h-2.834v-15.273h-1.33
		c-0.658,0-1.193-0.535-1.193-1.193v-10.21c0-2.764,2.248-5.012,5.012-5.012h2.123c2.764,0,5.013,2.248,5.013,5.012V260.293
		L279.069,260.293z"/>
	<path fill="#7A7A7A" d="M259.133,249.718c1.459-1.009,2.417-2.692,2.417-4.596c0-3.08-2.506-5.586-5.586-5.586
		s-5.586,2.506-5.586,5.586c0,1.907,0.961,3.593,2.424,4.602c-2.519,0.876-4.333,3.273-4.333,6.087v7.156
		c0,1.359,1.039,2.48,2.364,2.612v12.613h10.025v-12.601c1.446-0.001,2.622-1.179,2.622-2.625v-4.108h-1.432v4.108
		c0,0.658-0.535,1.193-1.193,1.193h-1.43v12.6h-2.87v-9.839h-1.432v9.839h-2.858v-12.6h-1.171c-0.658,0-1.193-0.535-1.193-1.193
		v-7.156c0-2.764,2.249-5.012,5.012-5.012h2.123c2.764,0,5.013,2.249,5.013,5.012v1.621h1.432v-1.621
		C263.481,252.991,261.66,250.59,259.133,249.718L259.133,249.718z M255.964,249.276c-2.291,0-4.154-1.864-4.154-4.154
		c0-2.291,1.863-4.154,4.154-4.154c2.29,0,4.153,1.863,4.153,4.154C260.117,247.412,258.254,249.276,255.964,249.276z"/>
	<path fill="#7A7A7A" d="M242.164,254.492c1.458-1.009,2.417-2.692,2.417-4.596c0-3.08-2.506-5.586-5.586-5.586
		c-3.08,0-5.585,2.506-5.585,5.586c0,1.907,0.961,3.593,2.423,4.601c-1.467,0.51-2.728,1.542-3.511,2.938l1.249,0.7
		c0.887-1.581,2.563-2.563,4.375-2.563h2.123c2.764,0,5.012,2.249,5.012,5.012v4.578c0,0.658-0.536,1.193-1.193,1.193h-1.64v10.404
		h-2.864v-7.871h-1.432v7.871h-2.864v-10.404h-0.96c-0.658,0-1.193-0.535-1.193-1.193v-4.578c0-0.438,0.057-0.874,0.168-1.293
		l-1.384-0.368c-0.144,0.539-0.216,1.099-0.216,1.661v4.578c0,1.287,0.931,2.36,2.154,2.583v10.447h10.025v-10.404h0.208
		c1.448,0,2.625-1.178,2.625-2.626v-4.578C246.512,257.765,244.691,255.364,242.164,254.492z M238.995,254.049
		c-2.291,0-4.154-1.863-4.154-4.154s1.863-4.154,4.154-4.154c2.29,0,4.154,1.863,4.154,4.154S241.285,254.049,238.995,254.049z"/>
	<path fill="#7A7A7A" d="M237.951,261.723h1.432v1.438h-1.432V261.723z"/>
	<path fill="#7A7A7A" d="M237.951,258.864h1.432v1.432h-1.432V258.864z"/>
	<path fill="#7A7A7A" d="M255.13,254.568h1.432V256h-1.432V254.568z"/>
	<path fill="#7A7A7A" d="M255.13,257.432h1.432v1.433h-1.432V257.432z"/>
	<path fill="#7A7A7A" d="M272.268,248.846h1.432v1.432h-1.432V248.846z"/>
	<path fill="#7A7A7A" d="M272.268,251.71h1.432v1.432h-1.432V251.71z"/>
	<path fill="#7A7A7A" d="M272.268,254.574h1.432V256h-1.432V254.574z"/>
</g>
</svg>
