<?xml version="1.0" encoding="utf-8"?>
<!-- Generator: Adobe Illustrator 16.0.2, SVG Export Plug-In . SVG Version: 6.00 Build 0)  -->
<!DOCTYPE svg PUBLIC "-//W3C//DTD SVG 1.1//EN" "http://www.w3.org/Graphics/SVG/1.1/DTD/svg11.dtd">
<svg version="1.1" id="Layer_1" xmlns="http://www.w3.org/2000/svg" xmlns:xlink="http://www.w3.org/1999/xlink" x="0px" y="0px"
	 width="49px" height="44.385px" viewBox="0 0 49 44.385" enable-background="new 0 0 49 44.385" xml:space="preserve">
<g>
	<path fill="#7A7A7A" d="M44.652,10.182c1.459-1.009,2.417-2.692,2.417-4.596c0-0.888-0.202-1.737-0.602-2.523L45.19,3.71
		c0.296,0.584,0.446,1.215,0.446,1.876c0,2.291-1.863,4.154-4.153,4.154s-4.154-1.863-4.154-4.154s1.864-4.154,4.154-4.154
		c1.126,0,2.18,0.443,2.968,1.248l1.022-1.002C44.414,0.596,42.997,0,41.483,0c-3.08,0-5.586,2.506-5.586,5.586
		c0,1.907,0.961,3.593,2.424,4.602c-2.519,0.876-4.333,3.273-4.333,6.087v10.211c0,1.414,1.123,2.57,2.524,2.624v15.275h10.024
		V29.106C47.909,29.022,49,27.879,49,26.485v-10.21C49,13.455,47.179,11.054,44.652,10.182L44.652,10.182z M47.568,26.485
		c0,0.658-0.535,1.193-1.193,1.193h-1.271v15.273H42.21V30.249h-1.433v12.703h-2.834V27.679h-1.33c-0.658,0-1.193-0.535-1.193-1.193
		v-10.21c0-2.764,2.248-5.012,5.012-5.012h2.123c2.764,0,5.013,2.248,5.013,5.012V26.485L47.568,26.485z"/>
	<path fill="#7A7A7A" d="M27.632,15.911c1.459-1.009,2.417-2.692,2.417-4.596c0-3.08-2.506-5.586-5.586-5.586
		s-5.586,2.506-5.586,5.586c0,1.907,0.961,3.593,2.424,4.602c-2.519,0.876-4.333,3.273-4.333,6.087v7.156
		c0,1.359,1.039,2.48,2.364,2.612v12.613h10.025V31.784c1.446-0.001,2.622-1.179,2.622-2.625v-4.108h-1.432v4.108
		c0,0.658-0.535,1.193-1.193,1.193h-1.43v12.6h-2.87v-9.839h-1.432v9.839h-2.858v-12.6h-1.171c-0.658,0-1.193-0.535-1.193-1.193
		v-7.156c0-2.764,2.249-5.012,5.012-5.012h2.123c2.764,0,5.013,2.249,5.013,5.012v1.621h1.432v-1.621
		C31.98,19.184,30.16,16.783,27.632,15.911L27.632,15.911z M24.463,15.468c-2.291,0-4.154-1.864-4.154-4.154
		c0-2.291,1.863-4.154,4.154-4.154c2.29,0,4.153,1.863,4.153,4.154C28.617,13.604,26.753,15.468,24.463,15.468z"/>
	<path fill="#7A7A7A" d="M10.664,20.684c1.458-1.009,2.417-2.692,2.417-4.596c0-3.08-2.506-5.586-5.586-5.586
		c-3.08,0-5.585,2.506-5.585,5.586c0,1.907,0.961,3.593,2.423,4.601c-1.467,0.51-2.728,1.542-3.511,2.938l1.249,0.7
		c0.887-1.581,2.563-2.563,4.375-2.563h2.123c2.764,0,5.012,2.249,5.012,5.012v4.578c0,0.658-0.536,1.193-1.193,1.193h-1.64v10.404
		H7.882v-7.871H6.45v7.871H3.586V32.548h-0.96c-0.658,0-1.193-0.535-1.193-1.193v-4.578c0-0.438,0.057-0.874,0.168-1.293
		l-1.384-0.368C0.073,25.654,0,26.214,0,26.776v4.578c0,1.287,0.931,2.36,2.154,2.583v10.447h10.024V33.98h0.208
		c1.447,0,2.625-1.178,2.625-2.626v-4.578C15.012,23.957,13.19,21.556,10.664,20.684z M7.495,20.242
		c-2.291,0-4.154-1.863-4.154-4.154s1.863-4.154,4.154-4.154c2.29,0,4.154,1.863,4.154,4.154S9.785,20.242,7.495,20.242z"/>
	<path fill="#7A7A7A" d="M6.45,27.915h1.432v1.438H6.45V27.915z"/>
	<path fill="#7A7A7A" d="M6.45,25.057h1.432v1.432H6.45V25.057z"/>
	<path fill="#7A7A7A" d="M23.629,20.76h1.432v1.432h-1.432V20.76z"/>
	<path fill="#7A7A7A" d="M23.629,23.624h1.432v1.433h-1.432V23.624z"/>
	<path fill="#7A7A7A" d="M40.767,15.038h1.432v1.432h-1.432V15.038z"/>
	<path fill="#7A7A7A" d="M40.767,17.902h1.432v1.432h-1.432V17.902z"/>
	<path fill="#7A7A7A" d="M40.767,20.766h1.432v1.426h-1.432V20.766z"/>
</g>
</svg>
