<?xml version="1.0" encoding="utf-8"?>
<!-- Generator: Adobe Illustrator 16.0.2, SVG Export Plug-In . SVG Version: 6.00 Build 0)  -->
<!DOCTYPE svg PUBLIC "-//W3C//DTD SVG 1.1//EN" "http://www.w3.org/Graphics/SVG/1.1/DTD/svg11.dtd">
<svg version="1.1" id="Layer_1" xmlns="http://www.w3.org/2000/svg" xmlns:xlink="http://www.w3.org/1999/xlink" x="0px" y="0px"
	 width="64px" height="65.038px" viewBox="208.396 210.981 64 65.038" enable-background="new 208.396 210.981 64 65.038"
	 xml:space="preserve">
<path fill="#519F99" d="M272.396,256.819v-9.6c-0.003-2.944-2.389-5.33-5.333-5.333h-4.267V231.22c0-0.589-0.478-1.066-1.067-1.066
	h-6.399c-0.589,0-1.066,0.478-1.066,1.066v10.667h-9.601v-12.8c0-0.589-0.478-1.066-1.066-1.066h-6.4
	c-0.589,0-1.066,0.478-1.066,1.066v12.8h-9.6V231.22c0-0.589-0.478-1.066-1.066-1.066h-6.4c-0.589,0-1.066,0.478-1.066,1.066v10.667
	h-4.267c-2.944,0.003-5.33,2.389-5.333,5.333v9.6c-0.037,2.289,1.194,4.412,3.2,5.517v11.55h-2.133
	c-0.589,0-1.066,0.478-1.066,1.067c0,0.589,0.478,1.066,1.066,1.066h61.866c0.589,0,1.066-0.478,1.066-1.066
	c0-0.59-0.478-1.067-1.066-1.067h-2.134v-11.533C271.17,261.208,272.389,259.102,272.396,256.819z M256.396,232.287h4.267v9.6
	h-4.267V232.287z M238.263,230.153h4.267v11.733h-4.267V230.153z M220.13,232.287h4.267v9.6h-4.267V232.287z M210.53,247.22
	c0-1.768,1.433-3.2,3.2-3.2h53.333c1.768,0,3.199,1.433,3.199,3.2v9.6c-0.003,1.694-1.003,3.228-2.552,3.915
	c-1.613,0.679-3.476,0.329-4.731-0.889c-0.801-0.804-1.25-1.893-1.25-3.026v-4.267c-0.005-1.61-0.919-3.08-2.361-3.797l-0.064-0.035
	c-0.171-0.081-0.347-0.15-0.527-0.206c-0.106-0.035-0.204-0.07-0.31-0.096c-0.137-0.031-0.274-0.056-0.413-0.073
	c-0.094-0.014-0.184-0.042-0.279-0.049c-0.051,0-0.1,0.007-0.149,0.005c-0.051-0.002-0.106-0.016-0.162-0.016
	c-0.118,0-0.231,0.024-0.349,0.034c-0.118,0.01-0.242,0.015-0.362,0.035c-0.185,0.034-0.367,0.081-0.545,0.14
	c-0.097,0.029-0.194,0.051-0.288,0.088c-0.199,0.08-0.391,0.177-0.575,0.288c-0.067,0.038-0.139,0.066-0.204,0.106
	c-0.249,0.161-0.481,0.349-0.691,0.558c-0.804,0.798-1.254,1.885-1.252,3.018v2.134c0,2.356-1.909,4.267-4.267,4.267
	c-2.355,0-4.267-1.91-4.267-4.267v-2.134c-0.005-1.61-0.919-3.08-2.361-3.797l-0.065-0.035c-0.171-0.081-0.347-0.15-0.527-0.206
	c-0.106-0.035-0.204-0.07-0.31-0.096c-0.136-0.031-0.274-0.056-0.414-0.073c-0.094-0.014-0.183-0.042-0.278-0.049
	c-0.051,0-0.1,0.007-0.15,0.005s-0.105-0.016-0.161-0.016c-0.119,0-0.232,0.024-0.35,0.034c-0.118,0.01-0.242,0.015-0.362,0.035
	c-0.184,0.034-0.366,0.081-0.544,0.14c-0.097,0.029-0.195,0.051-0.289,0.088c-0.198,0.08-0.39,0.177-0.573,0.287
	c-0.068,0.038-0.141,0.067-0.207,0.106c-0.249,0.161-0.48,0.348-0.691,0.557c-0.804,0.799-1.255,1.887-1.251,3.02v6.4
	c0,2.356-1.91,4.267-4.267,4.267s-4.267-1.91-4.267-4.267v-6.4c-0.005-1.61-0.919-3.08-2.362-3.797l-0.065-0.035
	c-0.171-0.081-0.347-0.15-0.527-0.206c-0.106-0.035-0.204-0.07-0.31-0.096c-0.136-0.031-0.274-0.056-0.414-0.073
	c-0.094-0.014-0.183-0.042-0.278-0.049s-0.205-0.011-0.312-0.011c-2.356,0-4.267,1.91-4.267,4.267v4.267
	c0.002,1.131-0.444,2.216-1.24,3.018c-1.058,1.018-2.552,1.441-3.986,1.131c-0.255-0.055-0.505-0.132-0.747-0.231
	c-0.487-0.215-0.932-0.517-1.311-0.891c-0.801-0.804-1.25-1.893-1.25-3.026V247.22z M213.73,273.886v-10.755
	c0.107,0.018,0.213,0.022,0.32,0.035l0.082,0.009c0.933,0.097,1.876-0.013,2.763-0.32c0.271-0.096,0.536-0.209,0.791-0.339
	c0.055-0.026,0.107-0.056,0.164-0.086c0.207-0.112,0.408-0.235,0.602-0.37c0.062-0.042,0.125-0.082,0.186-0.126
	c1.633-1.188,2.587-3.096,2.56-5.114v-4.267c-0.001-0.565,0.224-1.108,0.626-1.507c0.106-0.105,0.224-0.2,0.35-0.282
	c0.022-0.014,0.046-0.023,0.069-0.035c0.105-0.064,0.214-0.119,0.328-0.164c0.034-0.013,0.067-0.021,0.101-0.03
	c0.104-0.036,0.211-0.063,0.32-0.081c0.051-0.008,0.107-0.01,0.157-0.016c0.09-0.009,0.18-0.012,0.27-0.01
	c0.067,0.004,0.134,0.01,0.2,0.021c0.081,0.01,0.16,0.024,0.238,0.044c0.026,0.006,0.051,0.016,0.077,0.023
	c0.93,0.339,1.543,1.228,1.532,2.218v6.22c0,3.534,2.865,6.399,6.4,6.399s6.4-2.865,6.4-6.399v-6.4c0-0.725,0.369-1.398,0.978-1.79
	c0.018-0.011,0.04-0.019,0.058-0.03c0.108-0.066,0.222-0.123,0.34-0.169c0.03-0.012,0.061-0.019,0.09-0.027
	c0.105-0.036,0.212-0.063,0.32-0.084c0.051-0.007,0.107-0.01,0.154-0.015c0.09-0.009,0.18-0.012,0.271-0.01
	c0.067,0.004,0.134,0.01,0.2,0.021c0.081,0.01,0.16,0.024,0.238,0.044c0.026,0.006,0.051,0.016,0.077,0.023
	c0.933,0.336,1.551,1.226,1.54,2.218v1.953c0,3.534,2.865,6.399,6.399,6.399c3.535,0,6.4-2.865,6.4-6.399v-2.134
	c-0.001-0.565,0.225-1.108,0.626-1.507c0.106-0.105,0.224-0.2,0.35-0.282c0.022-0.014,0.047-0.023,0.07-0.037
	c0.104-0.063,0.214-0.117,0.327-0.162c0.033-0.013,0.068-0.021,0.106-0.03c0.103-0.036,0.208-0.063,0.314-0.081
	c0.052-0.008,0.107-0.01,0.157-0.016c0.089-0.009,0.18-0.012,0.27-0.01c0.067,0.004,0.135,0.01,0.2,0.021
	c0.08,0.01,0.16,0.024,0.238,0.044c0.026,0.006,0.051,0.016,0.077,0.023c0.929,0.34,1.543,1.229,1.53,2.218v4.086
	c-0.002,1.7,0.672,3.331,1.874,4.535c0.212,0.206,0.438,0.397,0.676,0.573c0.068,0.05,0.141,0.095,0.213,0.143
	c0.18,0.123,0.36,0.236,0.549,0.339c0.075,0.041,0.149,0.081,0.226,0.118c0.215,0.106,0.436,0.201,0.66,0.283
	c0.045,0.017,0.089,0.037,0.135,0.052c0.585,0.199,1.195,0.314,1.813,0.341h0.007c0.298,0.013,0.596,0.003,0.892-0.026l0.106-0.012
	c0.107-0.012,0.214-0.017,0.32-0.034v10.755H213.73z"/>
<path fill="#519F99" d="M240.396,225.887c2.944-0.004,5.33-2.39,5.333-5.333c0-2.56-3.711-8.063-4.456-9.139
	c-0.21-0.272-0.534-0.433-0.878-0.433c-0.344,0-0.668,0.16-0.877,0.433c-0.745,1.077-4.456,6.579-4.456,9.139
	C235.067,223.497,237.452,225.883,240.396,225.887z M240.396,213.948c1.535,2.399,3.2,5.44,3.2,6.605c0,1.768-1.432,3.2-3.2,3.2
	c-1.767,0-3.2-1.433-3.2-3.2C237.196,219.388,238.861,216.347,240.396,213.948z"/>
<path fill="#519F99" d="M258.53,228.02c2.943-0.003,5.33-2.39,5.333-5.333c0-2.56-3.711-8.063-4.455-9.139
	c-0.21-0.272-0.534-0.433-0.878-0.433s-0.669,0.16-0.878,0.433c-0.745,1.077-4.456,6.579-4.456,9.139
	C253.199,225.63,255.585,228.017,258.53,228.02z M258.53,216.082c1.534,2.399,3.199,5.44,3.199,6.605c0,1.768-1.432,3.2-3.199,3.2
	s-3.2-1.433-3.2-3.2C255.329,221.521,256.994,218.48,258.53,216.082z"/>
<path fill="#519F99" d="M222.263,228.02c2.944-0.003,5.33-2.39,5.333-5.333c0-2.56-3.711-8.063-4.456-9.139
	c-0.21-0.272-0.534-0.433-0.878-0.433c-0.344,0-0.668,0.16-0.877,0.433c-0.745,1.077-4.456,6.579-4.456,9.139
	C216.933,225.63,219.319,228.017,222.263,228.02z M222.263,216.082c1.535,2.399,3.2,5.44,3.2,6.605c0,1.768-1.433,3.2-3.2,3.2
	c-1.767,0-3.2-1.433-3.2-3.2C219.063,221.521,220.728,218.48,222.263,216.082z"/>
</svg>
