<?xml version="1.0" encoding="utf-8"?>
<!-- Generator: Adobe Illustrator 16.0.2, SVG Export Plug-In . SVG Version: 6.00 Build 0)  -->
<!DOCTYPE svg PUBLIC "-//W3C//DTD SVG 1.1//EN" "http://www.w3.org/Graphics/SVG/1.1/DTD/svg11.dtd">
<svg version="1.1" id="Layer_1" xmlns="http://www.w3.org/2000/svg" xmlns:xlink="http://www.w3.org/1999/xlink" x="0px" y="0px"
	 width="51px" height="68px" viewBox="230.5 222 51 68" enable-background="new 230.5 222 51 68" xml:space="preserve">
<g>
	<path fill="#775270" d="M280.438,281.5h-4.25v-22.313c0-1.632-1.221-3.285-2.7-3.737l-11.112-4.422v-3.858
		c1.951-1.752,3.188-4.285,3.188-7.108v-7.616c2.249-0.762,4.25-3.952,4.25-9.384c0-0.587-0.475-1.063-1.063-1.063h-14.875
		c-4.936,0-7.438,3.217-7.438,9.563v8.5c0,2.822,1.237,5.355,3.188,7.108v3.86l-11.031,4.392c-1.56,0.479-2.782,2.133-2.782,3.765
		V281.5h-4.25c-0.586,0-1.063,0.475-1.063,1.063v6.375c0,0.588,0.476,1.063,1.063,1.063h48.875c0.588,0,1.063-0.475,1.063-1.063
		v-6.375C281.5,281.975,281.026,281.5,280.438,281.5L280.438,281.5z M274.063,259.188V281.5h-2.321
		c0.12-0.334,0.196-0.688,0.196-1.063v-17c0-1.758-1.431-3.188-3.188-3.188h-6.781l2.419-4.837c0.17-0.341,0.146-0.747-0.066-1.065
		l-0.234-0.352l8.695,3.457C273.452,257.659,274.063,258.486,274.063,259.188z M243.25,281.5c-0.585,0-1.063-0.476-1.063-1.063v-17
		c0-0.587,0.477-1.063,1.063-1.063h25.5c0.586,0,1.063,0.476,1.063,1.063v17c0,0.587-0.477,1.063-1.063,1.063H243.25z
		 M250.852,253.417l3.646,3.646l-2.457,2.456l-2.252-4.503L250.852,253.417z M256,258.564l1.686,1.686h-3.371L256,258.564z
		 M261.148,253.417l1.063,1.597l-2.252,4.503l-2.457-2.455L261.148,253.417z M253.875,224.125h13.781
		c-0.246,4.167-1.922,6.375-3.156,6.375h-15.91C248.871,224.916,251.398,224.125,253.875,224.125L253.875,224.125z M248.563,240.063
		v-7.438h14.875v7.438c0,4.1-3.337,7.438-7.438,7.438C251.899,247.5,248.563,244.163,248.563,240.063L248.563,240.063z M256,249.625
		c1.526,0,2.968-0.37,4.25-1.008v2.693l-4.25,4.25l-4.25-4.25v-2.693C253.032,249.255,254.472,249.625,256,249.625z
		 M237.938,259.188c0-0.701,0.611-1.528,1.362-1.763l8.612-3.428l-0.233,0.351c-0.211,0.318-0.237,0.724-0.067,1.065l2.419,4.837
		h-6.781c-1.757,0-3.188,1.43-3.188,3.188v17c0,0.375,0.077,0.729,0.196,1.063h-2.321V259.188z M279.375,287.875h-46.75v-4.25h46.75
		V287.875z"/>
	<path fill="#775270" d="M256,267.688c-2.344,0-4.25,1.906-4.25,4.25s1.906,4.25,4.25,4.25s4.25-1.906,4.25-4.25
		S258.344,267.688,256,267.688z M256,274.063c-1.172,0-2.125-0.953-2.125-2.125s0.953-2.125,2.125-2.125
		c1.171,0,2.125,0.953,2.125,2.125S257.171,274.063,256,274.063z"/>
</g>
</svg>
