<?xml version="1.0" encoding="utf-8"?>
<!-- Generator: Adobe Illustrator 16.0.2, SVG Export Plug-In . SVG Version: 6.00 Build 0)  -->
<!DOCTYPE svg PUBLIC "-//W3C//DTD SVG 1.1//EN" "http://www.w3.org/Graphics/SVG/1.1/DTD/svg11.dtd">
<svg version="1.1" id="Icons" xmlns="http://www.w3.org/2000/svg" xmlns:xlink="http://www.w3.org/1999/xlink" x="0px" y="0px"
	 width="62px" height="55.771px" viewBox="224.823 228.392 62 55.771" enable-background="new 224.823 228.392 62 55.771"
	 xml:space="preserve">
<path fill="#775270" d="M241.185,284.162c-2.281,0-4.13-1.85-4.13-4.131v-12.994c0-0.489,0.397-0.886,0.886-0.886
	c0.49,0,0.887,0.396,0.887,0.886v12.994c-0.08,1.3,0.909,2.418,2.208,2.498s2.418-0.909,2.498-2.209
	c0.006-0.096,0.006-0.192,0-0.289v-25.882c0-0.489,0.397-0.886,0.886-0.886s0.886,0.397,0.886,0.886v25.882
	C245.306,282.31,243.463,284.157,241.185,284.162z"/>
<path fill="#775270" d="M247.301,269.04c-2.077,0-3.762-1.681-3.767-3.758v-11.133c0-0.489,0.397-0.886,0.886-0.886
	s0.886,0.397,0.886,0.886v11.133c0,1.102,0.893,1.994,1.995,1.994c1.101,0,1.994-0.893,1.994-1.994V250.79
	c-0.005-2.247-1.83-4.064-4.077-4.06c-0.003,0-0.006,0-0.009,0h-14.554c-2.24,0.005-4.055,1.82-4.06,4.06v14.492
	c0,1.102,0.893,1.994,1.994,1.994s1.995-0.893,1.995-1.994v-11.133c0-0.489,0.396-0.886,0.886-0.886
	c0.489,0,0.886,0.397,0.886,0.886v11.133c0,2.08-1.687,3.768-3.767,3.768s-3.767-1.688-3.767-3.768V250.79
	c0.005-3.219,2.613-5.827,5.833-5.832h14.554c3.219,0.005,5.827,2.613,5.832,5.832v14.492
	C251.036,267.349,249.367,269.025,247.301,269.04L247.301,269.04z"/>
<path fill="#775270" d="M234.705,284.162c-2.277-0.005-4.121-1.853-4.121-4.131v-25.882c0-0.489,0.396-0.886,0.886-0.886
	c0.489,0,0.886,0.397,0.886,0.886v25.882c0,1.298,1.052,2.349,2.349,2.35c1.297,0,2.349-1.052,2.349-2.35l0,0v-12.994
	c0-0.489,0.397-0.886,0.887-0.886c0.489,0.001,0.885,0.397,0.886,0.886v12.994C238.827,282.31,236.983,284.157,234.705,284.162z"/>
<path fill="#775270" d="M237.941,242.574c-3.916,0-7.091-3.175-7.091-7.091c0-3.917,3.175-7.091,7.091-7.091
	c3.917,0,7.091,3.175,7.091,7.091C245.031,239.399,241.857,242.574,237.941,242.574z M237.941,230.094
	c-2.937,0-5.318,2.381-5.318,5.318c0,2.938,2.381,5.318,5.318,5.318c2.938,0,5.318-2.381,5.318-5.318
	C243.259,232.475,240.878,230.094,237.941,230.094z"/>
<path fill="#775270" d="M283.323,259.894c-0.266,0.001-0.53-0.028-0.789-0.089c-0.989-0.232-1.832-0.878-2.313-1.772l-3.102-5.779
	c-0.232-0.431-0.072-0.969,0.358-1.201s0.969-0.072,1.201,0.359l3.138,5.796c0.479,0.854,1.56,1.158,2.414,0.679
	c0.051-0.028,0.1-0.06,0.147-0.093c0.759-0.555,0.953-1.604,0.443-2.394l-5.646-8.554c-2.607-3.962-7.933-5.062-11.896-2.454
	c-0.977,0.643-1.812,1.478-2.454,2.454l-5.593,8.509c-0.511,0.835-0.248,1.926,0.587,2.437c0.387,0.236,0.849,0.315,1.292,0.222
	c0.486-0.117,0.897-0.44,1.125-0.886l2.908-5.318c0.233-0.427,0.768-0.585,1.196-0.354c0.43,0.231,0.592,0.766,0.363,1.197
	l-2.881,5.362c-0.942,1.717-3.098,2.345-4.813,1.402c-0.091-0.05-0.18-0.104-0.266-0.161c-1.587-1.089-2.016-3.244-0.966-4.857
	l5.593-8.5c3.146-4.78,9.571-6.105,14.352-2.959c1.169,0.769,2.169,1.767,2.941,2.933l5.62,8.598
	c1.037,1.66,0.533,3.848-1.127,4.886C284.606,259.698,283.972,259.885,283.323,259.894z"/>
<path fill="#775270" d="M283.677,270.042h-23.355c-1.664,0-3.014-1.35-3.014-3.014c0-0.494,0.122-0.981,0.354-1.418l8.447-15.618
	c0.23-0.43,0.766-0.592,1.196-0.364c0.433,0.23,0.597,0.767,0.367,1.199c-0.001,0.002-0.002,0.004-0.004,0.007l-8.447,15.609
	c-0.322,0.604-0.095,1.356,0.51,1.68c0.182,0.097,0.384,0.147,0.59,0.146h23.355c0.44,0.007,0.85-0.224,1.072-0.603
	c0.223-0.378,0.223-0.846,0-1.224l-8.42-15.626c-0.272-0.407-0.164-0.957,0.242-1.23s0.957-0.165,1.229,0.242
	c0.031,0.046,0.058,0.095,0.079,0.146l8.456,15.618c0.783,1.469,0.228,3.294-1.241,4.077c-0.437,0.232-0.923,0.354-1.418,0.354
	V270.042z"/>
<path fill="#775270" d="M274.894,283.719c-2.086,0-3.776-1.69-3.776-3.776v-10.787c0-0.489,0.396-0.886,0.887-0.886h5.778
	c0.49,0,0.887,0.396,0.887,0.886v10.796C278.664,282.033,276.975,283.719,274.894,283.719L274.894,283.719z M272.89,270.042v9.909
	c0,1.106,0.897,2.004,2.004,2.004c1.105,0,2.003-0.897,2.003-2.004l0,0v-9.909H272.89z"/>
<path fill="#775270" d="M269.141,283.719c-2.086,0-3.776-1.69-3.776-3.776l0,0v-10.787c0-0.489,0.397-0.886,0.887-0.886h5.788
	c0.489,0,0.887,0.396,0.887,0.886v10.796C272.916,282.035,271.224,283.719,269.141,283.719L269.141,283.719z M267.102,270.042v9.909
	c0.074,1.109,1.032,1.948,2.142,1.875c1.006-0.067,1.808-0.868,1.874-1.875v-9.909H267.102z"/>
<path fill="#775270" d="M272.004,242.946c-3.917,0-7.091-3.175-7.091-7.091s3.174-7.091,7.091-7.091
	c3.916,0,7.091,3.175,7.091,7.091S275.92,242.946,272.004,242.946z M272.004,230.537c-2.938,0-5.318,2.381-5.318,5.318
	s2.381,5.318,5.318,5.318c2.937,0,5.317-2.381,5.317-5.318S274.941,230.537,272.004,230.537z"/>
</svg>
