<?xml version="1.0" encoding="utf-8"?>
<!-- Generator: Adobe Illustrator 16.0.2, SVG Export Plug-In . SVG Version: 6.00 Build 0)  -->
<!DOCTYPE svg PUBLIC "-//W3C//DTD SVG 1.1//EN" "http://www.w3.org/Graphics/SVG/1.1/DTD/svg11.dtd">
<svg version="1.1" id="Layer_1" xmlns="http://www.w3.org/2000/svg" xmlns:xlink="http://www.w3.org/1999/xlink" x="0px" y="0px"
	 width="62px" height="46px" viewBox="225 233 62 46" enable-background="new 225 233 62 46" xml:space="preserve">
<g id="Layer_12">
	<path fill="#775270" d="M283,249h-22v-3c0-0.552-0.447-1-1-1h-3v-1c0-1.657-1.343-3-3-3h-14c-0.552,0-1-0.448-1-1s0.448-1,1-1h30
		c1.656,0,3-1.343,3-3v-2c0-0.552-0.447-1-1-1s-1,0.448-1,1v2c0,0.552-0.447,1-1,1h-30c-1.657,0-3,1.343-3,3s1.343,3,3,3h14
		c0.552,0,1,0.448,1,1v1h-3c-0.552,0-1,0.448-1,1v3h-22c-2.209,0-4,1.791-4,4v22c0,2.209,1.791,4,4,4h54c2.209,0,4-1.791,4-4v-22
		C287,250.791,285.209,249,283,249z M253,247h6v2h-6V247z M285,275c0,1.104-0.896,2-2,2h-54c-1.104,0-2-0.896-2-2v-22
		c0-1.104,0.896-2,2-2h54c1.104,0,2,0.896,2,2V275z"/>
	<path fill="#775270" d="M266,269h-20c-0.552,0-1,0.447-1,1v4c0,0.553,0.448,1,1,1h20c0.553,0,1-0.447,1-1v-4
		C267,269.447,266.553,269,266,269z M265,273h-18v-2h18V273z"/>
	<path fill="#775270" d="M234,269h-4c-0.552,0-1,0.447-1,1v4c0,0.553,0.448,1,1,1h4c0.552,0,1-0.447,1-1v-4
		C235,269.447,234.552,269,234,269z M233,273h-2v-2h2V273z"/>
	<path fill="#775270" d="M242,269h-4c-0.552,0-1,0.447-1,1v4c0,0.553,0.448,1,1,1h4c0.552,0,1-0.447,1-1v-4
		C243,269.447,242.552,269,242,269z M241,273h-2v-2h2V273z"/>
	<path fill="#775270" d="M234,261c-0.552,0-1,0.447-1,1v4c0,0.553,0.448,1,1,1h4c0.552,0,1-0.447,1-1v-4c0-0.553-0.448-1-1-1H234z
		 M237,265h-2v-2h2V265z"/>
	<path fill="#775270" d="M242,261c-0.552,0-1,0.447-1,1v4c0,0.553,0.448,1,1,1h4c0.552,0,1-0.447,1-1v-4c0-0.553-0.448-1-1-1H242z
		 M245,265h-2v-2h2V265z"/>
	<path fill="#775270" d="M250,261c-0.552,0-1,0.447-1,1v4c0,0.553,0.448,1,1,1h4c0.552,0,1-0.447,1-1v-4c0-0.553-0.448-1-1-1H250z
		 M253,265h-2v-2h2V265z"/>
	<path fill="#775270" d="M258,261c-0.553,0-1,0.447-1,1v4c0,0.553,0.447,1,1,1h4c0.553,0,1-0.447,1-1v-4c0-0.553-0.447-1-1-1H258z
		 M261,265h-2v-2h2V265z"/>
	<path fill="#775270" d="M266,261c-0.553,0-1,0.447-1,1v4c0,0.553,0.447,1,1,1h4c0.553,0,1-0.447,1-1v-4c0-0.553-0.447-1-1-1H266z
		 M269,265h-2v-2h2V265z"/>
	<path fill="#775270" d="M273,262v4c0,0.553,0.447,1,1,1h4c0.553,0,1-0.447,1-1v-4c0-0.553-0.447-1-1-1h-4
		C273.448,261,273,261.447,273,262z M275,263h2v2h-2V263z"/>
	<path fill="#775270" d="M230,259h4c0.552,0,1-0.447,1-1v-4c0-0.552-0.448-1-1-1h-4c-0.552,0-1,0.448-1,1v4
		C229,258.553,229.448,259,230,259z M231,255h2v2h-2V255z"/>
	<path fill="#775270" d="M238,259h4c0.552,0,1-0.447,1-1v-4c0-0.552-0.448-1-1-1h-4c-0.552,0-1,0.448-1,1v4
		C237,258.553,237.448,259,238,259z M239,255h2v2h-2V255z"/>
	<path fill="#775270" d="M246,259h4c0.552,0,1-0.447,1-1v-4c0-0.552-0.448-1-1-1h-4c-0.552,0-1,0.448-1,1v4
		C245,258.553,245.448,259,246,259z M247,255h2v2h-2V255z"/>
	<path fill="#775270" d="M254,259h4c0.553,0,1-0.447,1-1v-4c0-0.552-0.447-1-1-1h-4c-0.552,0-1,0.448-1,1v4
		C253,258.553,253.448,259,254,259z M255,255h2v2h-2V255z"/>
	<path fill="#775270" d="M262,259h4c0.553,0,1-0.447,1-1v-4c0-0.552-0.447-1-1-1h-4c-0.553,0-1,0.448-1,1v4
		C261,258.553,261.448,259,262,259z M263,255h2v2h-2V255z"/>
	<path fill="#775270" d="M270,259h4c0.553,0,1-0.447,1-1v-4c0-0.552-0.447-1-1-1h-4c-0.553,0-1,0.448-1,1v4
		C269,258.553,269.448,259,270,259z M271,255h2v2h-2V255z"/>
	<path fill="#775270" d="M282,253h-4c-0.553,0-1,0.448-1,1v4c0,0.553,0.447,1,1,1h4c0.553,0,1-0.447,1-1v-4
		C283,253.448,282.553,253,282,253z M281,257h-2v-2h2V257z"/>
	<path fill="#775270" d="M274,269h-4c-0.553,0-1,0.447-1,1v4c0,0.553,0.447,1,1,1h4c0.553,0,1-0.447,1-1v-4
		C275,269.447,274.553,269,274,269z M273,273h-2v-2h2V273z"/>
	<path fill="#775270" d="M282,269h-4c-0.553,0-1,0.447-1,1v4c0,0.553,0.447,1,1,1h4c0.553,0,1-0.447,1-1v-4
		C283,269.447,282.553,269,282,269z M281,273h-2v-2h2V273z"/>
</g>
</svg>
