<?xml version="1.0" encoding="utf-8"?>
<!-- Generator: Adobe Illustrator 16.0.2, SVG Export Plug-In . SVG Version: 6.00 Build 0)  -->
<!DOCTYPE svg PUBLIC "-//W3C//DTD SVG 1.1//EN" "http://www.w3.org/Graphics/SVG/1.1/DTD/svg11.dtd">
<svg version="1.1" id="Layer_1" xmlns="http://www.w3.org/2000/svg" xmlns:xlink="http://www.w3.org/1999/xlink" x="0px" y="0px"
	 width="35.729px" height="76px" viewBox="0 0 35.729 76" enable-background="new 0 0 35.729 76" xml:space="preserve">
<path fill="#775270" d="M22.297,76c-3.108,0-5.628-2.52-5.628-5.629V52.664c0-0.667,0.541-1.207,1.208-1.207
	c0.667,0,1.209,0.54,1.209,1.207v17.707c-0.109,1.771,1.238,3.295,3.009,3.404c1.772,0.109,3.295-1.239,3.404-3.01
	c0.008-0.131,0.008-0.263,0-0.395v-35.27c0-0.667,0.541-1.208,1.208-1.208s1.208,0.541,1.208,1.208v35.27
	C27.914,73.475,25.401,75.994,22.297,76z"/>
<path fill="#775270" d="M30.632,55.393c-2.831,0-5.126-2.291-5.134-5.121V35.101c0-0.667,0.541-1.208,1.208-1.208
	s1.208,0.541,1.208,1.208v15.171c0,1.501,1.217,2.718,2.718,2.718s2.718-1.217,2.718-2.718V30.523
	c-0.007-3.062-2.494-5.539-5.557-5.532c-0.004,0-0.008,0-0.012,0H7.948c-3.053,0.007-5.525,2.48-5.532,5.532v19.749
	c0,1.501,1.216,2.718,2.717,2.718s2.718-1.217,2.718-2.718V35.101c0-0.667,0.54-1.208,1.208-1.208c0.667,0,1.208,0.541,1.208,1.208
	v15.171c0,2.835-2.298,5.134-5.133,5.134S0,53.107,0,50.272V30.523c0.006-4.386,3.561-7.941,7.948-7.947h19.833
	c4.387,0.006,7.94,3.561,7.947,7.947v19.749C35.722,53.087,33.448,55.373,30.632,55.393L30.632,55.393z"/>
<path fill="#775270" d="M13.467,76c-3.104-0.006-5.616-2.524-5.616-5.629v-35.27c0-0.667,0.54-1.208,1.208-1.208
	c0.667,0,1.208,0.541,1.208,1.208v35.27c0,1.769,1.434,3.201,3.201,3.202c1.768,0,3.201-1.434,3.201-3.202l0,0V52.664
	c0-0.667,0.542-1.207,1.209-1.207c0.666,0.001,1.206,0.541,1.208,1.207v17.707C19.085,73.475,16.571,75.994,13.467,76z"/>
<path fill="#775270" d="M17.876,19.326c-5.336,0-9.663-4.326-9.663-9.663C8.213,4.326,12.54,0,17.876,0
	c5.338,0,9.663,4.326,9.663,9.664C27.539,15,23.214,19.326,17.876,19.326z M17.876,2.32c-4.002,0-7.247,3.244-7.247,7.247
	c0,4.003,3.245,7.248,7.247,7.248c4.003,0,7.248-3.245,7.248-7.248C25.124,5.564,21.879,2.32,17.876,2.32z"/>
</svg>
