<?xml version="1.0" encoding="utf-8"?>
<!-- Generator: Adobe Illustrator 16.0.2, SVG Export Plug-In . SVG Version: 6.00 Build 0)  -->
<!DOCTYPE svg PUBLIC "-//W3C//DTD SVG 1.1//EN" "http://www.w3.org/Graphics/SVG/1.1/DTD/svg11.dtd">
<svg version="1.1" id="Layer_1" xmlns="http://www.w3.org/2000/svg" xmlns:xlink="http://www.w3.org/1999/xlink" x="0px" y="0px"
	 width="57px" height="51.3px" viewBox="211.5 190.35 57 51.3" enable-background="new 211.5 190.35 57 51.3" xml:space="preserve">
<path fill="#4E78A3" d="M265.651,198.9H253.3v-3.8c-0.003-2.623-2.128-4.747-4.75-4.75h-17.1c-2.623,0.003-4.747,2.127-4.75,4.75
	v3.8h-12.35c-1.574,0-2.85,1.276-2.85,2.85v21.147c0.006,1.205,0.766,2.277,1.9,2.682V238.8c0,1.574,1.276,2.851,2.85,2.851h47.5
	c1.574,0,2.85-1.276,2.85-2.851v-13.22c1.135-0.405,1.895-1.478,1.9-2.683V201.75C268.5,200.176,267.224,198.9,265.651,198.9z
	 M228.6,195.1c0-1.574,1.276-2.85,2.85-2.85h17.1c1.574,0,2.851,1.276,2.851,2.85v3.8h-1.9v-3.8c0-0.525-0.426-0.95-0.95-0.95h-17.1
	c-0.525,0-0.95,0.425-0.95,0.95v3.8h-1.9V195.1z M247.6,198.9h-15.2v-2.85h15.2V198.9z M264.7,238.8c0,0.525-0.426,0.95-0.95,0.95
	h-47.5c-0.524,0-0.95-0.425-0.95-0.95v-12.895l20.9,2.883v2.412c0,1.574,1.276,2.85,2.85,2.85h1.9c1.573,0,2.85-1.276,2.85-2.85
	v-2.412l20.9-2.883V238.8z M241.901,231.2c0,0.524-0.426,0.95-0.95,0.95h-1.9c-0.524,0-0.95-0.425-0.95-0.95v-5.7
	c0-0.524,0.425-0.95,0.95-0.95h1.9c0.524,0,0.95,0.426,0.95,0.95V231.2z M266.6,222.897c0.001,0.474-0.348,0.875-0.816,0.941
	l-0.264,0.036l-21.72,2.995v-1.37c0-1.574-1.276-2.85-2.85-2.85h-1.9c-1.574,0-2.85,1.276-2.85,2.85v1.37l-21.982-3.031
	c-0.469-0.066-0.818-0.467-0.818-0.941V201.75c0-0.524,0.425-0.95,0.95-0.95h51.3c0.524,0,0.949,0.426,0.949,0.95V222.897z"/>
</svg>
