<?xml version="1.0" encoding="utf-8"?>
<!-- Generator: Adobe Illustrator 16.0.2, SVG Export Plug-In . SVG Version: 6.00 Build 0)  -->
<!DOCTYPE svg PUBLIC "-//W3C//DTD SVG 1.1//EN" "http://www.w3.org/Graphics/SVG/1.1/DTD/svg11.dtd">
<svg version="1.1" id="Capa_1" xmlns="http://www.w3.org/2000/svg" xmlns:xlink="http://www.w3.org/1999/xlink" x="0px" y="0px"
	 width="46px" height="42.406px" viewBox="283 374.797 46 42.406" enable-background="new 283 374.797 46 42.406"
	 xml:space="preserve">
<g>
	<g>
		<path fill="#7A7A7A" d="M329,377.492c0-1.486-1.209-2.695-2.695-2.695h-40.609c-1.486,0-2.695,1.209-2.695,2.695v19.676
			c0,0.004,0,0.009,0,0.013c0,0.009,0,0.018,0,0.026v6.33c0,1.854,0.281,3.691,0.836,5.461l1.017,3.243v4.063
			c0,0.496,0.402,0.898,0.898,0.898s0.898-0.402,0.898-0.898v-4.201c0-0.091-0.014-0.182-0.041-0.269l-1.058-3.375
			c-0.5-1.595-0.754-3.251-0.754-4.923v-6.33c0-0.499,0.406-0.905,0.905-0.905s0.905,0.406,0.905,0.905v2.202
			c0,0.496,0.402,0.898,0.898,0.898s0.898-0.402,0.898-0.898v-3.531c0-0.5,0.406-0.905,0.906-0.905c0.499,0,0.905,0.406,0.905,0.905
			v3.531c0,0.496,0.402,0.898,0.898,0.898s0.898-0.402,0.898-0.898v-4.674c0-0.5,0.406-0.905,0.905-0.905s0.905,0.406,0.905,0.905
			v4.674c0,0.496,0.402,0.898,0.898,0.898s0.898-0.402,0.898-0.898v-10.573c0-0.499,0.406-0.905,0.905-0.905
			c0.5,0,0.906,0.406,0.906,0.905v13.063c0,0.411,0.279,0.77,0.678,0.871c0.398,0.1,0.815-0.083,1.011-0.444l2.118-3.923
			c0.26-0.481,0.847-0.666,1.335-0.42c0.418,0.212,0.634,0.677,0.524,1.132l-1.373,5.692c-0.27,1.118-0.751,2.156-1.43,3.085
			l-2.69,3.682c-0.112,0.154-0.173,0.34-0.173,0.53v4.201c0,0.496,0.402,0.898,0.898,0.898s0.898-0.402,0.898-0.898v-3.908
			l2.517-3.444c0.819-1.121,1.4-2.374,1.726-3.724l0.796-3.299h3.468l0.795,3.299c0.326,1.35,0.906,2.603,1.726,3.724l2.518,3.444
			v3.908c0,0.496,0.402,0.898,0.898,0.898s0.898-0.402,0.898-0.898v-4.201c0-0.19-0.061-0.376-0.173-0.53l-2.69-3.682
			c-0.679-0.929-1.16-1.967-1.43-3.085l-1.373-5.692c-0.11-0.455,0.105-0.921,0.523-1.132c0.488-0.246,1.075-0.062,1.335,0.42
			l2.119,3.923c0.195,0.361,0.612,0.544,1.01,0.443c0.399-0.101,0.679-0.459,0.679-0.871v-13.062c0-0.499,0.406-0.905,0.905-0.905
			s0.905,0.406,0.905,0.905v10.572c0,0.497,0.402,0.898,0.898,0.898s0.898-0.401,0.898-0.898v-4.673c0-0.5,0.406-0.905,0.905-0.905
			c0.5,0,0.905,0.406,0.905,0.905v4.673c0,0.497,0.402,0.898,0.898,0.898s0.898-0.401,0.898-0.898v-3.53
			c0-0.5,0.406-0.905,0.905-0.905c0.5,0,0.906,0.406,0.906,0.905v3.531c0,0.496,0.402,0.898,0.898,0.898s0.898-0.402,0.898-0.898
			v-2.202c0-0.499,0.406-0.905,0.905-0.905s0.905,0.406,0.905,0.905v6.33c0,1.672-0.254,3.328-0.754,4.924l-1.059,3.374
			c-0.027,0.087-0.041,0.178-0.041,0.269v4.201c0,0.496,0.402,0.898,0.898,0.898s0.898-0.402,0.898-0.898v-4.063l1.018-3.243
			c0.555-1.77,0.836-3.606,0.836-5.461v-6.33c0-0.009-0.001-0.018-0.001-0.026c0-0.004,0.001-0.009,0.001-0.013V377.492z
			 M307.156,399.536l0.145,0.597h-2.602l0.144-0.597c0.257-1.064-0.123-2.147-0.939-2.817h4.191
			C307.281,397.389,306.9,398.472,307.156,399.536z M327.203,394.661c-0.283-0.101-0.588-0.156-0.905-0.156
			c-0.41,0-0.799,0.092-1.147,0.256c-0.426-0.935-1.368-1.585-2.461-1.585c-0.438,0-0.854,0.105-1.221,0.292
			c-0.455-0.853-1.354-1.435-2.387-1.435c-0.317,0-0.622,0.055-0.905,0.156v-3.353c0-1.49-1.212-2.702-2.702-2.702
			s-2.702,1.212-2.702,2.702v9.508l-0.43-0.796c-0.408-0.756-1.104-1.249-1.879-1.414c0.037-0.098,0.059-0.204,0.059-0.314
			c0-0.496-0.402-0.898-0.898-0.898h-6.229c-0.496,0-0.898,0.402-0.898,0.898c0,0.101,0.018,0.198,0.048,0.289
			c-1.142-0.179-2.307,0.364-2.888,1.439l-0.429,0.796v-9.508c0-1.49-1.212-2.702-2.702-2.702c-1.49,0-2.703,1.212-2.703,2.702
			v3.353c-0.283-0.101-0.588-0.156-0.905-0.156c-1.032,0-1.931,0.582-2.386,1.435c-0.367-0.187-0.782-0.292-1.221-0.292
			c-1.092,0-2.035,0.65-2.46,1.585c-0.349-0.164-0.737-0.256-1.147-0.256c-0.317,0-0.622,0.055-0.905,0.156v-17.169
			c0-0.496,0.403-0.898,0.898-0.898h40.609c0.495,0,0.898,0.403,0.898,0.898V394.661z"/>
	</g>
</g>
<g>
	<g>
		<path fill="#7A7A7A" d="M292.614,384.859h-3.863c-0.496,0-0.898,0.403-0.898,0.898c0,0.497,0.402,0.898,0.898,0.898h3.863
			c0.496,0,0.898-0.402,0.898-0.898C293.512,385.262,293.11,384.859,292.614,384.859z"/>
	</g>
</g>
<g>
	<g>
		<path fill="#7A7A7A" d="M301.621,384.859h-1.423c-0.496,0-0.898,0.403-0.898,0.898c0,0.497,0.402,0.898,0.898,0.898h1.423
			c0.496,0,0.898-0.402,0.898-0.898C302.52,385.262,302.117,384.859,301.621,384.859z"/>
	</g>
</g>
<g>
	<g>
		<path fill="#7A7A7A" d="M290.302,389.891h-1.552c-0.496,0-0.898,0.402-0.898,0.898s0.402,0.898,0.898,0.898h1.552
			c0.497,0,0.898-0.402,0.898-0.898S290.799,389.891,290.302,389.891z"/>
	</g>
</g>
<g>
	<g>
		<path fill="#7A7A7A" d="M304.021,389.891h-1.672c-0.496,0-0.898,0.402-0.898,0.898s0.402,0.898,0.898,0.898h1.672
			c0.496,0,0.898-0.402,0.898-0.898S304.517,389.891,304.021,389.891z"/>
	</g>
</g>
<g>
	<g>
		<path fill="#7A7A7A" d="M291.855,379.829h-3.104c-0.496,0-0.898,0.402-0.898,0.898s0.402,0.898,0.898,0.898h3.104
			c0.496,0,0.898-0.402,0.898-0.898S292.351,379.829,291.855,379.829z"/>
	</g>
</g>
<g>
	<g>
		<path fill="#7A7A7A" d="M301.621,379.829h-2.846c-0.496,0-0.898,0.402-0.898,0.898s0.402,0.898,0.898,0.898h2.846
			c0.496,0,0.898-0.402,0.898-0.898S302.117,379.829,301.621,379.829z"/>
	</g>
</g>
<g>
	<g>
		<path fill="#7A7A7A" d="M295.997,380.091c-0.167-0.167-0.398-0.262-0.635-0.262c-0.236,0-0.468,0.095-0.635,0.262
			s-0.263,0.399-0.263,0.635c0,0.237,0.096,0.468,0.263,0.636c0.167,0.167,0.399,0.262,0.635,0.262c0.236,0,0.468-0.095,0.635-0.262
			c0.167-0.168,0.264-0.399,0.264-0.636C296.26,380.49,296.164,380.258,295.997,380.091z"/>
	</g>
</g>
<g>
	<g>
		<path fill="#7A7A7A" d="M307.258,384.859h-2.381c-0.496,0-0.898,0.402-0.898,0.898c0,0.497,0.402,0.898,0.898,0.898h2.381
			c0.496,0,0.898-0.402,0.898-0.898C308.156,385.262,307.754,384.859,307.258,384.859z"/>
	</g>
</g>
<g>
	<g>
		<path fill="#7A7A7A" d="M312.16,385.123c-0.167-0.167-0.398-0.263-0.635-0.263s-0.468,0.096-0.635,0.263
			c-0.168,0.167-0.264,0.399-0.264,0.635c0,0.237,0.096,0.468,0.264,0.635c0.167,0.168,0.398,0.263,0.635,0.263
			s0.468-0.095,0.635-0.263c0.167-0.167,0.264-0.399,0.264-0.635S312.328,385.29,312.16,385.123z"/>
	</g>
</g>
<g>
	<g>
		<path fill="#7A7A7A" d="M323.281,384.859H319.9c-0.496,0-0.898,0.402-0.898,0.898c0,0.497,0.402,0.898,0.898,0.898h3.382
			c0.496,0,0.898-0.402,0.898-0.898C324.18,385.262,323.778,384.859,323.281,384.859z"/>
	</g>
</g>
<g>
	<g>
		<path fill="#7A7A7A" d="M310.403,389.891h-1.812c-0.496,0-0.898,0.402-0.898,0.898s0.402,0.898,0.898,0.898h1.812
			c0.496,0,0.898-0.402,0.898-0.898S310.899,389.891,310.403,389.891z"/>
	</g>
</g>
<g>
	<g>
		<path fill="#7A7A7A" d="M323.106,389.891h-1.672c-0.496,0-0.898,0.402-0.898,0.898s0.402,0.898,0.898,0.898h1.672
			c0.496,0,0.898-0.402,0.898-0.898S323.602,389.891,323.106,389.891z"/>
	</g>
</g>
<g>
	<g>
		<path fill="#7A7A7A" d="M308.381,379.829H306c-0.496,0-0.898,0.402-0.898,0.898s0.402,0.898,0.898,0.898h2.381
			c0.496,0,0.898-0.402,0.898-0.898S308.877,379.829,308.381,379.829z"/>
	</g>
</g>
<g>
	<g>
		<path fill="#7A7A7A" d="M323.262,379.829h-2.975c-0.496,0-0.898,0.402-0.898,0.898s0.402,0.898,0.898,0.898h2.975
			c0.496,0,0.898-0.402,0.898-0.898S323.758,379.829,323.262,379.829z"/>
	</g>
</g>
<g>
	<g>
		<path fill="#7A7A7A" d="M315.658,379.829h-1.969c-0.496,0-0.898,0.402-0.898,0.898s0.402,0.898,0.898,0.898h1.969
			c0.496,0,0.898-0.402,0.898-0.898S316.155,379.829,315.658,379.829z"/>
	</g>
</g>
</svg>
