<?xml version="1.0" encoding="utf-8"?>
<!-- Generator: Adobe Illustrator 16.0.2, SVG Export Plug-In . SVG Version: 6.00 Build 0)  -->
<!DOCTYPE svg PUBLIC "-//W3C//DTD SVG 1.1//EN" "http://www.w3.org/Graphics/SVG/1.1/DTD/svg11.dtd">
<svg version="1.1" id="Layer_1" xmlns="http://www.w3.org/2000/svg" xmlns:xlink="http://www.w3.org/1999/xlink" x="0px" y="0px"
	 width="40.962px" height="76px" viewBox="0 0 40.962 76" enable-background="new 0 0 40.962 76" xml:space="preserve">
<path fill="#775270" d="M36.122,43.051c-0.367,0.002-0.733-0.039-1.091-0.123c-1.368-0.321-2.534-1.214-3.2-2.451l-4.289-7.992
	c-0.321-0.596-0.1-1.34,0.496-1.661c0.595-0.322,1.339-0.1,1.661,0.496l4.339,8.017c0.663,1.182,2.157,1.602,3.339,0.938
	c0.07-0.039,0.138-0.083,0.204-0.129c1.049-0.767,1.317-2.219,0.612-3.31l-7.809-11.83c-3.605-5.48-10.97-7-16.451-3.394
	c-1.351,0.889-2.505,2.043-3.394,3.394L2.805,36.774c-0.707,1.155-0.343,2.664,0.812,3.37c0.535,0.327,1.173,0.437,1.787,0.307
	c0.673-0.162,1.241-0.609,1.556-1.225l4.021-7.355c0.323-0.59,1.062-0.809,1.655-0.49c0.594,0.319,0.818,1.059,0.502,1.655
	l-3.984,7.415c-1.303,2.374-4.284,3.242-6.657,1.939c-0.125-0.069-0.249-0.144-0.367-0.223c-2.195-1.506-2.788-4.487-1.336-6.718
	l7.735-11.755c4.351-6.611,13.236-8.443,19.848-4.092c1.616,1.064,2.999,2.443,4.067,4.056l7.772,11.891
	c1.435,2.296,0.737,5.321-1.559,6.757C37.896,42.781,37.02,43.039,36.122,43.051z"/>
<path fill="#775270" d="M36.612,57.086h-32.3c-2.301,0-4.167-1.866-4.167-4.168c0-0.684,0.168-1.357,0.49-1.961l11.682-21.599
	c0.319-0.595,1.059-0.819,1.654-0.503c0.599,0.318,0.825,1.06,0.508,1.658c-0.001,0.003-0.002,0.006-0.005,0.009L2.792,52.109
	c-0.446,0.836-0.131,1.876,0.705,2.322c0.251,0.134,0.531,0.204,0.815,0.203h32.3c0.609,0.01,1.175-0.31,1.483-0.833
	c0.308-0.523,0.308-1.17,0-1.692L26.451,30.498c-0.377-0.563-0.228-1.323,0.335-1.701c0.562-0.377,1.323-0.228,1.7,0.335
	c0.043,0.063,0.079,0.131,0.109,0.201L40.29,50.933c1.083,2.031,0.314,4.556-1.717,5.639c-0.604,0.321-1.276,0.49-1.961,0.49V57.086
	z"/>
<path fill="#775270" d="M24.465,76c-2.885,0-5.223-2.338-5.223-5.223V55.859c0-0.677,0.548-1.225,1.226-1.225h7.991
	c0.679,0,1.227,0.548,1.227,1.225V70.79C29.679,73.669,27.343,76,24.465,76L24.465,76z M21.694,57.086V70.79
	c0,1.53,1.241,2.771,2.771,2.771c1.528,0,2.77-1.241,2.77-2.771l0,0V57.086H21.694z"/>
<path fill="#775270" d="M16.509,76c-2.885,0-5.222-2.338-5.222-5.223l0,0V55.859c0-0.677,0.549-1.225,1.226-1.225h8.005
	c0.676,0,1.226,0.548,1.226,1.225V70.79C21.73,73.672,19.39,76,16.509,76L16.509,76z M13.689,57.086V70.79
	c0.103,1.534,1.428,2.694,2.962,2.593c1.391-0.093,2.5-1.2,2.592-2.593V57.086H13.689z"/>
<path fill="#775270" d="M20.469,19.613c-5.417,0-9.806-4.391-9.806-9.806C10.663,4.391,15.052,0,20.469,0
	c5.416,0,9.806,4.391,9.806,9.807C30.275,15.222,25.884,19.613,20.469,19.613z M20.469,2.452c-4.063,0-7.355,3.293-7.355,7.355
	c0,4.062,3.292,7.355,7.355,7.355c4.061,0,7.354-3.293,7.354-7.355C27.823,5.745,24.53,2.452,20.469,2.452z"/>
</svg>
